<?xml version="1.0" encoding="UTF-8"?>
<!DOCTYPE svg PUBLIC "-//W3C//DTD SVG 1.1//EN" "http://www.w3.org/Graphics/SVG/1.1/DTD/svg11.dtd">
<!-- Creator: CorelDRAW 2021 (64-Bit) -->
<svg xmlns="http://www.w3.org/2000/svg" xml:space="preserve" width="1.70666in" height="1.70666in" version="1.1" style="shape-rendering:geometricPrecision; text-rendering:geometricPrecision; image-rendering:optimizeQuality; fill-rule:evenodd; clip-rule:evenodd"
viewBox="0 0 1706.66 1706.66"
 xmlns:xlink="http://www.w3.org/1999/xlink"
 xmlns:xodm="http://www.corel.com/coreldraw/odm/2003">
 <defs>
  <style type="text/css">
   <![CDATA[
    .fil0 {fill:darkorchid}
   ]]>
  </style>
 </defs>
 <g id="Layer_x0020_1">
  <metadata id="CorelCorpID_0Corel-Layer"/>
  <path class="fil0" d="M1185.8 348.46l-43.52 -34.86c-55.78,-52.3 -141.3,-118.71 -196.86,-170.21 -29.57,-27.42 -48.46,-48.17 -107.04,-43.15 -24.88,8.84 -35.49,14.75 -50.63,29.3 -50.8,44.04 -694.78,592.26 -731.25,635.56 -72.33,87.14 20.49,187.93 118.87,119.41 15.46,-9.55 103.9,-76.96 114.57,-83.12 -0.54,201.68 0.01,403.47 0.01,605.17 0,51.57 -2.48,91.99 22.35,131.33 17.67,28 45.44,53.28 84.93,65.06 43.37,12.93 239.26,7.3 297.74,6.3l0.17 -404.55c0,-30.81 -5.65,-100.46 8.7,-118.48l2.7 -2.31c10.81,-25.42 38.62,-28.08 64.51,-27.95 30.59,0.16 61.2,0.05 91.8,0.05 56.02,0 134.41,-13.02 150.11,34.25 14.37,13.88 7.7,216.92 7.7,255.13 0,88.02 -0.76,176.37 -0.02,264.35 50.69,-1.56 103.27,-0.28 154.18,-0.28 95.64,0 181.3,16.79 237.69,-69.15 24.87,-37.9 24.38,-72.17 24.38,-124.57 -0.01,-202.15 0.74,-404.44 0.01,-606.56l91.81 67.05c117.47,74.89 193.75,-51.4 115.15,-129.24 -38.3,-32.65 -258.72,-211.11 -262.43,-236.37l0.01 -208.15c0,-235.63 23.34,-205.87 -124.04,-205.96 -41.81,-0.03 -69.63,-5.9 -70.2,40.64 -0.74,61.06 -0.45,219.8 -1.37,211.31z"/>
 </g>
</svg>
